Coordinates
version=1
nRows=13
nColumns=40
inDegrees=yes

Units are S.I. units (second, meters, Newtons, ...)
Angles are in degrees.

endheader
time	pelvis_tilt	pelvis_list	pelvis_rotation	pelvis_tx	pelvis_ty	pelvis_tz	hip_flexion_r	hip_adduction_r	hip_rotation_r	knee_angle_r	knee_angle_r_beta	ankle_angle_r	subtalar_angle_r	mtp_angle_r	hip_flexion_l	hip_adduction_l	hip_rotation_l	knee_angle_l	knee_angle_l_beta	ankle_angle_l	subtalar_angle_l	mtp_angle_l	lumbar_extension	lumbar_bending	lumbar_rotation	arm_flex_r	arm_add_r	arm_rot_r	elbow_flex_r	pro_sup_r	wrist_flex_r	wrist_dev_r	arm_flex_l	arm_add_l	arm_rot_l	elbow_flex_l	pro_sup_l	wrist_flex_l	wrist_dev_l
      0.69000000	     -1.64301381	     -0.24756458	      7.93878490	     -1.24040124	      0.89949940	     -1.41428601	     18.04330752	     -5.27114827	    -12.72979814	    -64.62467965	     -1.12791344	     -4.14158868	    -18.43925092	     21.60638861	     17.57109781	      3.04912973	      7.77528026	    -29.98002718	     -0.52325018	      8.87463573	      8.23175695	      3.54309766	     -4.50084618	     -4.17854288	     -4.92719955	     -3.50264422	     -8.36956444	    -12.08086708	     27.06879493	     89.95437384	      0.00000000	      0.00000000	      2.15042046	     11.79833251	     16.67504643	     27.51861319	     89.95437384	      0.00000000	      0.00000000
      0.70000000	     -1.58815296	     -0.33999275	      7.99468707	     -1.23252972	      0.90011393	     -1.41652075	     19.01551401	     -5.14694615	    -12.84167019	    -64.30281884	     -1.12229591	     -2.61825720	    -18.20469382	     21.52248881	     16.80110595	      3.09301043	      7.87594700	    -29.74391342	     -0.51912922	      9.22569844	      8.03813343	      3.39419787	     -4.63467503	     -4.06965094	     -5.22461042	     -3.50794088	     -8.37050323	    -11.98553551	     25.76989799	     89.95437384	      0.00000000	      0.00000000	      2.49575073	     11.93206039	     16.79779877	     28.73310458	     89.95437384	      0.00000000	      0.00000000
      0.71000000	     -1.53395516	     -0.51324306	      8.01341411	     -1.22452626	      0.90068459	     -1.41853310	     19.93497121	     -4.85751730	    -12.89866059	    -63.62214440	     -1.11041590	     -1.22193476	    -18.12672468	     21.33196001	     16.01446188	      3.19491340	      7.77797804	    -29.48733913	     -0.51465116	      9.69827443	      7.97047514	      3.27545047	     -4.73716625	     -3.87989507	     -5.47805282	     -3.60711598	     -8.34542777	    -11.92483817	     24.72773704	     89.95437384	      0.00000000	      0.00000000	      2.90617534	     12.05418652	     16.90195539	     29.79258798	     89.95437384	      0.00000000	      0.00000000
      0.72000000	     -1.46153924	     -0.65476509	      8.03923818	     -1.21651594	      0.90114659	     -1.42048464	     20.75357575	     -4.66844222	    -13.06865771	    -62.74885607	     -1.09517414	      0.08385039	    -17.85306392	     21.15128062	     15.19798184	      3.33006650	      7.92112683	    -29.23085845	     -0.51017472	     10.06908746	      7.72226565	      3.12742241	     -4.85509443	     -3.71999738	     -5.72990316	     -3.67068879	     -8.32173354	    -11.98564810	     23.63292433	     89.95437384	      0.00000000	      0.00000000	      3.21398784	     12.17894816	     17.06258019	     31.10534356	     89.95437384	      0.00000000	      0.00000000
      0.73000000	     -1.21947107	     -0.80615060	      8.15561217	     -1.20828450	      0.90182370	     -1.42251091	     21.24029800	     -4.47940860	    -13.39322454	    -61.50449403	     -1.07345593	      1.11487757	    -17.50828396	     21.21924980	     14.15846771	      3.58860716	      8.37966022	    -28.88764255	     -0.50418448	     10.32927258	      6.96289163	      2.84439178	     -5.17332376	     -3.50210431	     -6.06786473	     -3.78801274	     -8.28050190	    -12.27166848	     22.67868303	     89.95437384	      0.00000000	      0.00000000	      3.53266070	     12.29342227	     17.27892438	     32.42596450	     89.95437384	      0.00000000	      0.00000000
      0.74000000	     -1.44679659	     -0.79490931	      8.19132279	     -1.20051963	      0.90163204	     -1.42459040	     22.35516130	     -4.57903765	    -13.60484861	    -60.29859914	     -1.05240909	      1.56458704	    -17.37535489	     20.93462248	     13.68229016	      3.51696968	      8.64706750	    -28.65689520	     -0.50015717	     10.54524023	      6.75070567	      2.75117132	     -4.99453166	     -3.50934542	     -6.20075080	     -4.22907918	     -8.31321379	    -12.23732895	     22.24563648	     89.95437384	      0.00000000	      0.00000000	      4.06219254	     12.40105049	     17.27502563	     33.37184313	     89.95437384	      0.00000000	      0.00000000
      0.75000000	     -1.05637290	     -1.02222634	      8.22708719	     -1.19210381	      0.90229654	     -1.42610908	     22.57135842	     -4.12088541	    -13.74836235	    -58.58078658	     -1.02242760	      2.44109925	    -17.28373161	     21.04765386	     12.41992967	      3.96164894	      9.22185356	    -28.20727369	     -0.49230980	     10.86753938	      5.50563652	      2.36039047	     -5.45467206	     -3.21841774	     -6.57910430	     -4.17952288	     -8.25279191	    -12.44888244	     21.23539273	     89.95437384	      0.00000000	      0.00000000	      4.14166346	     12.55813915	     17.58267300	     35.08216890	     89.95437384	      0.00000000	      0.00000000
      0.76000000	     -1.16485795	     -1.03463893	      8.25371234	     -1.18410882	      0.90208152	     -1.42793229	     23.41099508	     -4.07493535	    -13.87556575	    -56.98767085	     -0.99462249	      3.16109864	    -17.33180504	     20.90460032	     11.78043132	      3.96375697	      9.47982791	    -27.94273604	     -0.48769275	     11.21598834	      5.09451150	      2.17030392	     -5.40823916	     -3.18453054	     -6.81426449	     -4.43393460	     -8.24045009	    -12.64339030	     20.67532411	     89.95437384	      0.00000000	      0.00000000	      4.36804201	     12.69975592	     17.70043948	     36.53626297	     89.95437384	      0.00000000	      0.00000000
      0.77000000	     -1.46192709	     -0.91823418	      8.33446476	     -1.17650115	      0.90147400	     -1.42997846	     24.46024778	     -4.38535966	    -14.20857870	    -55.31472610	     -0.96542410	      3.58298276	    -17.11728017	     20.60489684	     11.45664378	      3.76931841	      9.73044824	    -27.83565669	     -0.48582386	     11.36406510	      4.93769862	      2.08569711	     -5.19491355	     -3.29464576	     -6.95170871	     -4.93764736	     -8.29958390	    -12.67964082	     20.45400372	     89.95437384	      0.00000000	      0.00000000	      4.90898806	     12.78256456	     17.68854778	     37.55450067	     89.95437384	      0.00000000	      0.00000000
      0.78000000	     -1.47473711	     -1.05232919	      8.47619747	     -1.16837082	      0.90129969	     -1.43153341	     24.99955327	     -4.10900471	    -14.30175459	    -53.21612438	     -0.92879659	      4.52693862	    -17.28685749	     20.49116951	     10.69362953	      3.86430244	      9.62195360	    -27.41855419	     -0.47854405	     11.80006079	      4.52112482	      1.90822618	     -5.24807902	     -3.12475046	     -7.48852961	     -4.98831594	     -8.23307605	    -13.02103380	     19.85065760	     89.95437384	      0.00000000	      0.00000000	      4.84482511	     13.03510225	     17.82370607	     39.34048771	     89.95437384	      0.00000000	      0.00000000
      0.79000000	     -1.02761824	     -1.23582055	      8.55838862	     -1.15973174	      0.90175515	     -1.43286120	     24.87679639	     -3.80597026	    -14.73556288	    -50.81715348	     -0.88692664	      4.86754309	    -17.20378556	     20.81293692	      9.46245987	      4.33078007	     10.26009092	    -27.16806860	     -0.47417225	     11.83666137	      3.40254597	      1.26039996	     -5.79572602	     -2.82842177	     -7.69433891	     -5.22384903	     -8.16926030	    -13.64454037	     19.46184866	     89.95437384	      0.00000000	      0.00000000	      5.13620891	     13.12374997	     18.02432040	     40.80172794	     89.95437384	      0.00000000	      0.00000000
      0.80000000	     -1.43553245	     -1.01728523	      8.55403233	     -1.15191102	      0.90085027	     -1.43446761	     25.87102914	     -4.14632075	    -14.88529578	    -48.69237330	     -0.84984223	      5.21459205	    -16.94132891	     20.55774305	      9.21475249	      4.00006941	     10.43666351	    -27.04183749	     -0.47196910	     12.01798810	      3.22213198	      1.15556866	     -5.46507844	     -3.07534720	     -7.82506512	     -5.68195307	     -8.18587682	    -13.71690708	     19.36081018	     89.95437384	      0.00000000	      0.00000000	      5.49994380	     13.26056394	     18.03847039	     41.97766939	     89.95437384	      0.00000000	      0.00000000
      0.81000000	     -1.28352310	     -1.19148581	      8.63894672	     -1.14353948	      0.90069965	     -1.43557635	     26.07214813	     -3.85165418	    -15.07389511	    -46.13889495	     -0.80527563	      5.32482941	    -16.86726109	     20.49405662	      8.28945021	      4.22848072	     10.44923436	    -26.70366497	     -0.46606688	     12.37130474	      2.89837802	      0.87261715	     -5.72227145	     -2.84047380	     -8.18450166	     -5.74196916	     -8.12965739	    -14.24222053	     18.86577870	     89.95437384	      0.00000000	      0.00000000	      5.46018965	     13.45161940	     18.20664840	     43.87276479	     89.95437384	      0.00000000	      0.00000000
